# xmcd
#
# Track frame offsets:
#	150
#	10527
#	20480
#	35010
#	44480
#	59775
#	69982
#	82152
#	91812
#	101010
#	109355
#	121010
#
# Disc length: 1870 seconds
#
# Revision: 1
# Processed by: cddbd v1.5.2PL0 Copyright (c) Steve Scherf et al.
# Submitted via: audiograbber 1.83.01
#
DISCID=9d074c0c
DTITLE=Moe Bandy - A Cowboy Christmas
DYEAR=1900
DGENRE=Country
TTITLE0=Cowboy Chrsitmas
TTITLE1=Winter Wonderland
TTITLE2=Oh Holly Night
TTITLE3=Rudolph the Red Nosed Reindeer
TTITLE4=I'll be Home for Christmas
TTITLE5=Santa Clause is Coming To Town
TTITLE6=Christmas at the Jerry Lilly Lounge
TTITLE7=Let it Snow Let it Snow Let it Snow
TTITLE8=The Christmas Song
TTITLE9=Have a Holly Jolly Christmas 
TTITLE10=White Christmas
TTITLE11=Silent Night
EXTD=
EXTT0=
EXTT1=
EXTT2=
EXTT3=
EXTT4=
EXTT5=
EXTT6=
EXTT7=
EXTT8=
EXTT9=
EXTT10=
EXTT11=
PLAYORDER=
